<?xml version="1.0" encoding="utf-8"?>
<!-- Generator: Adobe Illustrator 22.1.0, SVG Export Plug-In . SVG Version: 6.00 Build 0)  -->
<svg version="1.1" id="Layer_1" xmlns="http://www.w3.org/2000/svg" xmlns:xlink="http://www.w3.org/1999/xlink" x="0px" y="0px"
	 viewBox="0 0 550 260" style="enable-background:new 0 0 550 260;" xml:space="preserve">
<style type="text/css">
	.st0{fill:#0066FF;}
</style>
<g transform="translate(0.000000,135.000000) scale(0.100000,-0.100000)">
	<path class="st0" d="M1574.3,760.8c-20.2-7.8-35.8-21.8-35.8-29.5c0-7.8-37.3-34.2-80.9-59.1c-143.1-76.2-169.5-194.4-60.7-258.2
		c43.5-24.9,43.5-24.9,35.8,12.4c-6.2,37.3,46.7,132.2,76.2,132.2c7.8,0,14-192.8,14-475.9v-477.5l-63.8,10.9
		c-59.1,9.3-62.2,7.8-57.5-24.9c3.1-23.3,23.3-43.5,56-57.5c35.8-17.1,49.8-32.7,49.8-60.7c0-32.7,4.7-35.8,43.5-26.4
		c23.3,4.7,62.2,20.2,87.1,32.7s71.5,21.8,102.6,21.8c133.7,0,279.9,85.5,328.2,192.8c63.8,140,21.8,298.6-90.2,351.5
		c-28,12.4-51.3,26.4-51.3,31.1s32.7,24.9,73.1,46.7c94.9,49.8,171.1,149.3,185.1,242.6c31.1,205.3-115.1,342.1-385.7,359.3
		c-84,6.2-133.7,17.1-141.5,29.5C1644.2,779.5,1624,781,1574.3,760.8z M1908.6,560.2c93.3-48.2,118.2-93.3,113.5-210
		c-3.1-66.9-143.1-199.1-248.8-234.8c-127.5-42-126-43.5-126,230.2c0,132.2,4.7,244.2,12.4,250.4
		C1680,617.7,1841.8,594.4,1908.6,560.2z M1785.8,12.7c197.5-42,231.7-250.4,62.2-374.8c-42-31.1-150.9-62.2-172.6-49.8
		c-6.2,4.7-12.4,105.8-12.4,225.5C1662.9,56.3,1653.6,40.7,1785.8,12.7z"/>
	<path class="st0" d="M3370.5,673.7l-43.5-23.3V256.9c0-216.2,4.7-447.9,10.9-513.2l9.3-119.8l56,4.7l56,4.7l-4.7,118.2l-6.2,116.6
		l54.4,42c31.1,23.3,62.2,42,71.5,42c31.1,0,63.8-71.5,77.8-174.2c28-200.6,104.2-267.5,244.2-214.6l40.4,15.6l-49.8,35.8
		c-77.8,52.9-110.4,105.8-133.7,222.4c-15.6,77.8-32.7,116.6-62.2,143.1L3652,14.3l54.4,66.9c60.7,74.7,108.9,175.7,94.9,197.5
		c-26.4,43.5-126-4.7-147.7-70c-20.2-62.2-84-146.2-154-203.7l-52.9-43.5l10.9,270.6c4.7,149.3,14,315.7,18.7,370.1
		c9.3,93.3,9.3,96.4-26.4,96.4C3429.6,697,3393.9,686.1,3370.5,673.7z"/>
	<path class="st0" d="M3949.1,496.4c-59.1-59.1-29.5-155.5,48.2-155.5c93.3,0,164.9,132.2,93.3,171.1
		C4042.4,536.8,3983.3,530.6,3949.1,496.4z M4062.6,454.4c12.4-10.9-48.2-82.4-70-82.4c-20.2,0-14,34.2,14,65.3
		C4033.1,466.9,4047.1,471.5,4062.6,454.4z"/>
	<path class="st0" d="M2356.5,230.5c-77.8-62.2-122.9-161.7-130.6-295.5c-6.2-102.6-1.6-132.2,28-192.8
		c62.2-127.5,169.5-163.3,286.2-96.4c90.2,51.3,133.7,143.1,133.7,283.1c0,214.6-91.8,363.9-191.3,311
		c-34.2-17.1-40.4-17.1-48.2,1.6C2423.4,270.9,2404.7,269.3,2356.5,230.5z M2549.4,115.4c31.1-80.9,34.2-189.7,9.3-275.3
		c-43.5-152.4-133.7-192.8-191.3-85.5c-35.8,68.4-34.2,247.3,3.1,329.7c24.9,54.4,29.5,57.5,34.2,26.4l6.2-35.8l31.1,40.4
		C2482.5,165.1,2530.7,165.1,2549.4,115.4z"/>
	<path class="st0" d="M2880.6,213.4c-77.8-80.9-113.5-174.2-113.5-304.8c0-133.7,37.3-220.8,113.5-267.5
		c62.2-38.9,108.9-38.9,194.4,0c54.4,24.9,73.1,45.1,104.2,112c56,119.8,54.4,272.2-3.1,385.7c-56,107.3-91.8,132.2-147.7,102.6
		c-35.8-18.7-42-18.7-49.8,0C2964.6,277.1,2932,266.2,2880.6,213.4z M3090.6,112.3c49.8-130.6,29.5-301.7-45.1-384.1
		c-42-46.7-45.1-46.7-87.1-24.9c-59.1,32.7-87.1,121.3-76.2,241.1c9.3,102.6,35.8,194.4,57.5,194.4c7.8,0,14-15.6,14-32.7
		c0-32.7,1.6-31.1,32.7,7.8C3028.4,166.7,3070.4,165.1,3090.6,112.3z"/>
	<path class="st0" d="M3964.6,230.5l-38.9-14l4.7-290.8c3.1-161.7,10.9-298.6,17.1-304.8c6.2-6.2,29.5-6.2,49.8,3.1
		c38.9,14,38.9,20.2,59.1,269.1c9.3,138.4,21.8,276.8,28,304.8c7.8,46.7,6.2,49.8-35.8,48.2C4023.7,246,3986.4,238.2,3964.6,230.5z"
		/>
</g>
</svg>
