<?xml version="1.0" encoding="utf-8"?>
<!-- Generator: Adobe Illustrator 22.1.0, SVG Export Plug-In . SVG Version: 6.00 Build 0)  -->
<svg version="1.1" id="Layer_1" xmlns="http://www.w3.org/2000/svg" xmlns:xlink="http://www.w3.org/1999/xlink" x="0px" y="0px"
	 viewBox="0 0 550 260" style="enable-background:new 0 0 550 260;" xml:space="preserve">
<style type="text/css">
	.st0{fill:#FF6060;}
</style>
<path class="st0" d="M130.9,129.8l-19.5,19.8v27.8H96V70h15.4v60.2L169.6,70h17.6l-45.8,48.3l49,59.2h-17.9L130.9,129.8z"/>
<path class="st0" d="M300.6,168.5l6-11.5c7,4.8,17.8,8.3,28.2,8.3c13.6,0,19-4.1,19-11.2c0-18.2-51.1-2.6-51.1-34.8
	c0-14.7,13-24.3,33.6-24.3c10.5,0,22.5,2.9,29.5,7.3l-6.3,11.5c-7.3-4.8-15.2-6.4-23.2-6.4c-12.7,0-19,4.8-19,11.2
	c0,19.2,51.1,3.5,51.1,35.1c0,14.7-13.3,23.9-34.9,23.9C320.6,178.1,307.3,173.9,300.6,168.5z"/>
<path class="st0" d="M458,127.7v49h-13.9v-10.8c-4.7,7.3-13.9,11.5-26.5,11.5c-18.3,0-29.7-9.9-29.7-23.9c0-13.1,8.2-23.6,32.2-23.6
	h23.3v-2.9c0-12.4-7.2-19.5-21.2-19.5c-9.3,0-19,3.5-25.2,8.6l-5.9-11.2c8.1-6.7,19.9-10.5,32.7-10.5
	C445.9,94.9,458,105.7,458,127.7z M443.4,152.4v-11.5h-22.5c-14.6,0-18.7,5.7-18.7,12.4c0,8,6.7,13.1,17.8,13.1
	C431,166.8,439.9,162,443.4,152.4z"/>
<path class="st0" d="M253.2,155.5v22.4l9.5-5.6v-22.4L253.2,155.5z"/>
<path class="st0" d="M278.8,129.2l-37.6-21.9l-20.9-12.1l-20.5,35.9l0.3,33.9l37.5,22.1l3.8-2.2v-32.1l16.7-29.4l17,9.8v31.8
	l3.7-2.1V129.2z"/>
</svg>
