<?xml version="1.0" encoding="utf-8"?>
<!-- Generator: Adobe Illustrator 22.1.0, SVG Export Plug-In . SVG Version: 6.00 Build 0)  -->
<svg version="1.1" id="Layer_1" xmlns="http://www.w3.org/2000/svg" xmlns:xlink="http://www.w3.org/1999/xlink" x="0px" y="0px"
	 viewBox="0 0 100 100" style="enable-background:new 0 0 100 100;" xml:space="preserve">
<style type="text/css">
	.st0{fill:#64FFDA;}
	.st1{fill-rule:evenodd;clip-rule:evenodd;fill:none;stroke:#F0F3F6;stroke-width:3;stroke-miterlimit:10;}
	.st2{display:none;fill-rule:evenodd;clip-rule:evenodd;fill:none;stroke:#F0F3F6;stroke-width:5;stroke-miterlimit:10;}
</style>
<g>
	<path class="st0" d="M50,5c25.1,0,45.5,20.4,45.5,45.5S75.1,96,50,96S4.5,75.6,4.5,50.5S24.9,5,50,5 M50,2
		C23.2,2,1.5,23.7,1.5,50.5S23.2,99,50,99s48.5-21.7,48.5-48.5S76.8,2,50,2L50,2z"/>
</g>
<polyline class="st1" points="30.1,32 8.9,50 30.1,68 "/>
<polyline class="st1" points="69.9,68 91.1,50 69.9,32 "/>
<line class="st1" x1="50" y1="50" x2="37" y2="82"/>
<line class="st1" x1="50" y1="50" x2="63" y2="18"/>
<polyline class="st2" points="55,28 35,50.5 55,73 "/>
<line class="st2" x1="51" y1="50.5" x2="34.5" y2="50.5"/>
</svg>
