<?xml version="1.0" encoding="utf-8"?>
<!-- Generator: Adobe Illustrator 22.1.0, SVG Export Plug-In . SVG Version: 6.00 Build 0)  -->
<svg version="1.1" id="Layer_1" xmlns="http://www.w3.org/2000/svg" xmlns:xlink="http://www.w3.org/1999/xlink" x="0px" y="0px"
	 viewBox="0 0 550 260" style="enable-background:new 0 0 550 260;" xml:space="preserve">
<style type="text/css">
	.st0{fill:#101010;}
</style>
<path class="st0" d="M106.1,108.6c6.5,0,11.3,1.3,14.4,4c3.1,2.6,4.7,6.1,4.7,10.4c0,1.4-0.2,3-0.6,4.8c-0.9,3.9-2.6,7.4-5.1,10.4
	c-2.5,2.9-5.6,5.2-9.2,6.8c-3.6,1.6-7.5,2.4-11.7,2.4c-6.7,0-11.6-1.3-14.8-4c-3.2-2.7-4.8-6.2-4.8-10.7c0-1.5,0.2-3.1,0.6-5
	c0.9-3.7,2.6-7.1,5.2-9.9c2.6-2.9,5.7-5.2,9.4-6.8C97.9,109.4,101.9,108.6,106.1,108.6z M105.9,115c-1,0-2.1,0.9-3.2,2.7
	c-1.1,1.8-2.4,5.2-4,10.1c-1.5,5-2.3,8.5-2.3,10.5c0,1.1,0.2,1.8,0.5,2.2c0.3,0.3,0.8,0.5,1.4,0.5c1,0.1,2-0.8,3.1-2.6
	c1.1-1.8,2.5-5.4,4.1-10.7c1.5-4.7,2.2-8,2.2-10.1c0-1-0.2-1.7-0.5-2.1C106.9,115.2,106.5,115,105.9,115z"/>
<path class="st0" d="M168.2,136.8c-0.1,0.2-0.1,0.5-0.1,0.9c0,0.3,0.1,0.6,0.2,0.8c0.2,0.2,0.4,0.3,0.7,0.3c0.6,0,1.1-0.2,1.4-0.7
	c0.4-0.5,0.7-0.8,0.9-0.8c0.2,0,0.4,0.2,0.6,0.5c0.1,0.3,0.2,0.6,0.2,1.1c0,1.4-0.4,2.8-1.4,4.1c-1,1.3-2.4,2.4-4.2,3.2
	c-1.8,0.8-4,1.2-6.6,1.2c-3.2,0-5.7-0.7-7.6-2.2c-1.9-1.5-2.8-3.5-2.9-5.9c0-1.8,0.4-3.8,1.3-6l4-10.4c0.2-0.6,0.4-1.1,0.4-1.5
	c0-0.6-0.2-1.1-0.6-1.4c-0.4-0.4-0.9-0.6-1.4-0.6c-0.9,0-1.8,0.4-2.8,1.3c-0.9,0.8-1.7,2.2-2.2,4v-0.1l-4.5,14.6
	c-0.1,0.6-0.2,1.1-0.2,1.5c0,0.6,0.1,1.1,0.4,1.5c0.2,0.3,0.6,0.7,1,1c0.3,0.3,0.6,0.6,0.7,0.9c0.1,0.2,0.2,0.5,0.1,0.8
	c-0.2,0.6-0.7,1.1-1.4,1.4s-1.8,0.4-3.3,0.4h-16.4c-1.2,0-2.2-0.2-2.7-0.6c-0.6-0.4-0.8-1-0.6-1.7c0.2-0.6,0.7-1.1,1.5-1.5
	c0.7-0.4,1.3-0.8,1.8-1.4c0.5-0.5,0.9-1.4,1.2-2.5l10.9-35.9c0.1-0.4,0.2-0.8,0.2-1.1c0-0.5-0.1-1-0.4-1.3c-0.2-0.3-0.6-0.7-1-1
	c-0.5-0.4-0.8-0.7-1.1-1c-0.2-0.3-0.2-0.7-0.1-1.2c0.3-1.1,1.8-2.1,4.5-2.9c2.7-0.8,5.6-1.2,8.6-1.2c2.8,0,4.8,0.5,6.1,1.6
	c1.3,1.1,2,2.5,2,4.3c0,1.1-0.2,2.1-0.5,3.1l-3.9,12.7c1.9-2.4,3.8-4.2,5.9-5.1c2.1-1,4.4-1.4,6.8-1.4c2.9,0,5.3,0.9,7.1,2.7
	c1.8,1.8,2.7,4.1,2.7,6.9c0,1.5-0.2,3-0.7,4.4L168.2,136.8z"/>
<path class="st0" d="M243.7,136.8c-0.1,0.2-0.1,0.5-0.1,0.9c0,0.3,0.1,0.6,0.2,0.8c0.2,0.2,0.4,0.3,0.7,0.3c0.6,0,1.1-0.2,1.4-0.7
	c0.4-0.5,0.7-0.8,0.9-0.8c0.2,0,0.4,0.2,0.6,0.5c0.1,0.3,0.2,0.6,0.2,1.1c0,1.4-0.4,2.8-1.4,4.1c-1,1.3-2.4,2.4-4.2,3.2
	c-1.8,0.8-4,1.2-6.6,1.2c-3.2,0-5.7-0.7-7.6-2.2c-1.9-1.5-2.8-3.5-2.9-5.9c0-1.8,0.4-3.8,1.3-6l4-10.4c0.2-0.6,0.4-1.1,0.4-1.5
	c0-0.6-0.2-1.1-0.6-1.4c-0.4-0.4-0.9-0.6-1.4-0.6c-0.8,0-1.7,0.4-2.5,1.1s-1.6,1.8-2.3,3.4l-4,12.9c-0.1,0.2-0.1,0.5-0.1,0.9
	c0,0.3,0.1,0.6,0.2,0.8c0.2,0.2,0.4,0.3,0.7,0.3c0.6,0,1.1-0.2,1.4-0.7c0.4-0.5,0.7-0.8,0.9-0.8c0.2,0,0.4,0.2,0.6,0.5
	c0.1,0.3,0.2,0.6,0.2,1.1c0,1.4-0.4,2.8-1.4,4.1c-1,1.3-2.4,2.4-4.2,3.2c-1.8,0.8-4,1.2-6.6,1.2c-3.2,0-5.7-0.7-7.6-2.2
	c-1.9-1.5-2.8-3.5-2.9-5.9c0-1.8,0.4-3.8,1.3-6l4-10.4c0.2-0.6,0.4-1.1,0.4-1.5c0-0.6-0.2-1.1-0.6-1.4c-0.4-0.4-0.9-0.6-1.4-0.6
	c-0.8,0-1.7,0.4-2.5,1.1c-0.9,0.7-1.6,1.8-2.2,3.3l-4.8,15.4c-0.2,0.5-0.3,1-0.3,1.5c0,0.6,0.1,1.1,0.4,1.4c0.2,0.3,0.6,0.7,1,1.1
	c0.3,0.3,0.6,0.6,0.7,0.8c0.1,0.2,0.2,0.5,0.1,0.9c-0.2,0.6-0.6,1.1-1.4,1.4s-1.8,0.4-3.4,0.4h-16.4c-1.2,0-2.1-0.2-2.7-0.6
	c-0.6-0.4-0.8-1-0.6-1.7c0.2-0.6,0.7-1.1,1.5-1.5c0.7-0.4,1.3-0.8,1.8-1.4c0.5-0.5,0.9-1.4,1.2-2.5l6.4-20.8c0.1-0.2,0.1-0.6,0.1-1
	c0-0.5-0.1-0.9-0.4-1.2c-0.2-0.3-0.5-0.6-1-1.1c-0.5-0.4-0.8-0.7-1-1s-0.2-0.7-0.1-1.2c0.3-1.1,1.8-2.1,4.5-2.9
	c2.7-0.9,5.6-1.3,8.6-1.3c2.4,0,4.2,0.6,5.5,1.9c1.4,1.3,2.1,3.1,2,5.3c2-2.7,4-4.6,6.2-5.7c2.2-1.1,4.6-1.6,7.1-1.6
	c2.8,0,5,0.8,6.8,2.4c1.8,1.6,2.8,3.7,3,6.3c2.1-3.3,4.3-5.5,6.6-6.8c2.4-1.3,4.9-1.9,7.7-1.9c2.9,0,5.3,0.9,7.1,2.7
	c1.8,1.8,2.7,4.1,2.7,6.9c0,1.5-0.2,3-0.7,4.4L243.7,136.8z"/>
<path class="st0" d="M288.1,108.6c2.1,0,3.8,0.9,5,2.6c1.3,1.7,1.9,4,1.9,6.9c0,2.5-0.5,5.3-1.4,8.2c-1.8,5.9-4.6,11.5-8.6,16.7
	c-3.9,5.2-8.4,9.4-13.5,12.6c-5,3.2-10.1,4.8-15.1,4.8c-2.5,0-4.7-0.4-6.5-1.3c-1.8-0.9-3.1-2-4-3.5c-1-1.4-1.4-3-1.4-4.6
	c0-0.7,0.1-1.5,0.4-2.4c0.4-1.3,1.2-2.4,2.2-3.1c1-0.7,2.2-1.1,3.6-1.1c2.2,0,4,0.7,5.4,2.2c1.4,1.5,2.4,3.6,2.7,6.3
	c3.1-0.1,5.9-1.5,8.5-4c-2.4-0.4-4.3-1.2-5.5-2.4c-1.2-1.2-1.9-3.2-2.4-5.8l-2.9-17.6c-0.1-0.9-0.4-1.5-0.6-1.9
	c-0.2-0.4-0.6-0.6-1-0.6c-0.3,0-0.7,0.2-1.2,0.5c-0.4,0.3-0.7,0.5-0.9,0.5c-0.4,0-0.6-0.4-0.6-1.2c0-0.7,0.1-1.4,0.4-2.2
	c0.9-2.7,2.5-5,4.8-6.9c2.4-1.9,5.1-2.9,8.2-2.9c3.1,0,5.3,0.9,6.8,2.7c1.5,1.8,2.4,4.6,2.9,8.4l2.2,15.8c0.1,1.2,0.6,1.8,1.3,1.8
	c0.9,0,1.9-0.8,3-2.3c1.2-1.6,2.3-3.8,3.4-6.7c-1.4-1.3-2.5-2.8-3.3-4.5s-1.2-3.5-1.2-5.4c0-1.5,0.2-2.8,0.6-4
	c0.6-1.9,1.5-3.4,2.7-4.3C285.1,109.1,286.5,108.6,288.1,108.6z"/>
<path class="st0" d="M323.9,93.5c5.1,0,9,0.8,11.5,2.4c2.6,1.5,3.9,3.4,3.9,5.7c0,1.8-0.8,3.2-2.3,4.2c-1.5,1-3.5,1.4-5.9,1.4
	c-2.3,0-4-0.6-5.3-1.7c-1.2-1.1-1.9-2.5-1.9-4.1c0-1,0.3-2.1,0.9-3.2c-1.4,0-2.6,0.4-3.6,1.1c-1,0.7-1.7,1.8-2.2,3.5
	c-0.3,1.1-0.4,2-0.4,3c0,1.2,0.2,2.1,0.6,2.7c0.4,0.6,1,0.9,1.8,0.9h4.2c2.5,0,3.7,0.8,3.7,2.3c0,0.2,0,0.5-0.1,0.9
	c-0.3,1.1-0.9,1.8-1.8,2.4c-0.9,0.5-2.2,0.8-4,0.8H321l-7.1,23.3c-0.1,0.6-0.2,1.1-0.2,1.5c0,0.6,0.1,1.1,0.4,1.5
	c0.2,0.3,0.6,0.7,1,1c0.3,0.3,0.6,0.6,0.7,0.9c0.1,0.2,0.2,0.5,0.1,0.8c-0.2,0.6-0.7,1.1-1.4,1.4s-1.8,0.4-3.3,0.4h-16.4
	c-1.2,0-2.2-0.2-2.7-0.6c-0.6-0.4-0.8-1-0.6-1.7c0.2-0.6,0.7-1.1,1.5-1.5c0.7-0.4,1.3-0.8,1.8-1.4c0.5-0.5,0.9-1.4,1.2-2.5l5.6-18.4
	c0.2-0.7,0.4-1.5,0.4-2.2c0-1-0.2-1.7-0.6-2.2c-0.4-0.6-1-1.2-1.8-1.9c-0.5-0.4-0.9-0.8-1.2-1.1c-0.2-0.3-0.4-0.7-0.4-1.2
	c0-0.9,0.3-1.6,0.9-1.9c0.7-0.4,2.1-0.6,4-0.6h1.8c-0.3-1.2-0.5-2.4-0.5-3.6c0-1.2,0.2-2.4,0.6-3.7c0.9-2.4,2.9-4.5,5.8-6.2
	C313.6,94.4,318,93.5,323.9,93.5z"/>
<path class="st0" d="M352.4,108.6c6.5,0,11.3,1.3,14.4,4c3.1,2.6,4.7,6.1,4.7,10.4c0,1.4-0.2,3-0.6,4.8c-0.9,3.9-2.6,7.4-5.1,10.4
	c-2.5,2.9-5.6,5.2-9.2,6.8c-3.6,1.6-7.5,2.4-11.7,2.4c-6.7,0-11.6-1.3-14.8-4c-3.2-2.7-4.8-6.2-4.8-10.7c0-1.5,0.2-3.1,0.6-5
	c0.9-3.7,2.6-7.1,5.2-9.9c2.6-2.9,5.7-5.2,9.4-6.8C344.2,109.4,348.1,108.6,352.4,108.6z M352.1,115c-1,0-2.1,0.9-3.2,2.7
	c-1.1,1.8-2.4,5.2-4,10.1c-1.5,5-2.3,8.5-2.3,10.5c0,1.1,0.2,1.8,0.5,2.2c0.3,0.3,0.8,0.5,1.4,0.5c1,0.1,2-0.8,3.1-2.6
	c1.1-1.8,2.5-5.4,4.1-10.7c1.5-4.7,2.2-8,2.2-10.1c0-1-0.2-1.7-0.5-2.1C353.1,115.2,352.7,115,352.1,115z"/>
<path class="st0" d="M399.6,108.6c6.5,0,11.3,1.3,14.4,4c3.1,2.6,4.7,6.1,4.7,10.4c0,1.4-0.2,3-0.6,4.8c-0.9,3.9-2.6,7.4-5.1,10.4
	c-2.5,2.9-5.6,5.2-9.2,6.8c-3.6,1.6-7.5,2.4-11.7,2.4c-6.7,0-11.6-1.3-14.8-4c-3.2-2.7-4.8-6.2-4.8-10.7c0-1.5,0.2-3.1,0.6-5
	c0.9-3.7,2.6-7.1,5.2-9.9c2.6-2.9,5.7-5.2,9.4-6.8C391.4,109.4,395.4,108.6,399.6,108.6z M399.4,115c-1,0-2.1,0.9-3.2,2.7
	c-1.1,1.8-2.4,5.2-4,10.1c-1.5,5-2.3,8.5-2.3,10.5c0,1.1,0.2,1.8,0.5,2.2c0.3,0.3,0.8,0.5,1.4,0.5c1,0.1,2-0.8,3.1-2.6
	c1.1-1.8,2.5-5.4,4.1-10.7c1.5-4.7,2.2-8,2.2-10.1c0-1-0.2-1.7-0.5-2.1C400.4,115.2,399.9,115,399.4,115z"/>
<path class="st0" d="M459.2,136.3c-0.1,0.4-0.1,0.6-0.1,0.8c0,0.3,0.1,0.6,0.3,0.8c0.2,0.2,0.4,0.3,0.7,0.3c0.6,0,1.1-0.2,1.4-0.7
	c0.4-0.5,0.7-0.8,0.9-0.8c0.2,0,0.4,0.2,0.6,0.5c0.1,0.3,0.2,0.7,0.2,1.2c0,1.3-0.5,2.6-1.5,4c-1,1.3-2.4,2.4-4.1,3.3
	s-3.6,1.3-5.6,1.3c-2.4,0-4.5-0.5-6.3-1.4c-1.8-0.9-3-2.1-3.7-3.6c-1.3,1.7-2.8,2.9-4.5,3.7c-1.7,0.8-3.5,1.2-5.3,1.2
	c-2.2,0-4.3-0.6-6.2-1.7c-1.9-1.1-3.4-2.7-4.5-4.7c-1.1-2.1-1.7-4.4-1.7-7c0-4.4,0.8-8.5,2.4-12.3c1.7-3.9,4-7,7-9.4
	c3-2.4,6.4-3.6,10.1-3.6c2.1,0,3.8,0.2,5.3,0.7c1.5,0.5,2.8,1.2,4,2.2l2.4-8.1c0.1-0.4,0.2-0.8,0.2-1.1c0-0.5-0.1-1-0.4-1.3
	c-0.2-0.3-0.6-0.7-1-1c-0.5-0.4-0.8-0.7-1.1-1c-0.2-0.3-0.2-0.7-0.1-1.2c0.3-1.1,1.8-2.1,4.5-2.9c2.7-0.8,5.6-1.2,8.6-1.2
	c2.8,0,4.8,0.5,6.1,1.6c1.3,1.1,2,2.5,2,4.3c0,1.1-0.2,2.1-0.5,3.1L459.2,136.3z M447.2,116.1c-0.8-0.7-1.6-1-2.5-1
	c-1.4,0-2.8,1-4.1,3.1s-2.4,4.6-3.2,7.5s-1.2,5.6-1.2,7.9c0,2.6,0.9,4,2.6,4c0.6,0,1.2-0.2,1.6-0.7c0.4-0.5,0.8-1.4,1.2-2.5
	L447.2,116.1z"/>
</svg>
