<?xml version="1.0" encoding="utf-8"?>
<!-- Generator: Adobe Illustrator 22.1.0, SVG Export Plug-In . SVG Version: 6.00 Build 0)  -->
<svg version="1.1" id="Layer_1" xmlns="http://www.w3.org/2000/svg" xmlns:xlink="http://www.w3.org/1999/xlink" x="0px" y="0px"
	 viewBox="0 0 550 260" style="enable-background:new 0 0 550 260;" xml:space="preserve">
<style type="text/css">
	.st0{fill:#1D1D1B;}
</style>
<g id="dff727ea-c914-4c1d-9325-86d683f65698" transform="matrix(1.8084622163430943,0,0,1.8084622163430943,110.4220895861043,123.09992096770425)">
	<path d="M54.4,1.2L54.4,1.2L54.4,1.2c-0.1-0.3-0.2-0.8-0.2-1.4l0,0l0,0c0-0.6,0.2-2.4,0.6-5.3l0,0l0,0c0.4-2.9,0.6-5.3,0.6-7.1l0,0
		l0,0c0-0.4,0-1-0.1-1.7l0,0l0,0c1.1,0.1,1.7,0.3,2,0.7l0,0l0,0c0.1,0.3,0.2,0.5,0.3,0.7l0,0l0,0c0,0.2,0.1,0.6,0.1,1.1l0,0l0,0
		c0,0.5-0.2,2.4-0.7,5.6l0,0l0,0c-0.5,3.2-0.7,5.6-0.7,6.9l0,0l0,0c0.1,0,0.2,0,0.4,0l0,0l0,0c3,0,5.3-0.2,6.8-0.6l0,0l0,0
		c-0.1,0.8-0.4,1.4-0.8,1.9l0,0l0,0c-0.5,0.4-1,0.7-1.7,0.7l0,0l0,0c-0.2,0-0.8,0-1.8-0.1l0,0l0,0c-1-0.1-2-0.1-3-0.1l0,0l0,0
		c-1,0-1.9,0.1-2.9,0.3l0,0l0,0C53.5,2,53.8,1.6,54.4,1.2z M68.2-5.7L68.2-5.7L68.2-5.7c-0.4,0.7-0.7,1.4-0.9,2.2l0,0l0,0
		C67.1-2.8,67-2.1,67-1.4l0,0l0,0c0,0.7,0.2,1.2,0.5,1.7l0,0l0,0C67.7,0.7,68.1,1,68.7,1l0,0l0,0c0.8,0,1.5-0.4,2.2-1.3l0,0l0,0
		c0.7-0.9,1.2-1.9,1.6-3.1l0,0l0,0C72.9-4.7,73-5.8,73-6.9l0,0l0,0c0-1,0-1.9-0.1-2.6l0,0l0,0c0.3,0,0.5,0,0.6,0l0,0l0,0
		c1.2,0,1.8,0.6,1.8,1.8l0,0l0,0c0,0.3-0.2,1.3-0.5,3.2l0,0l0,0c-0.3,1.9-0.5,3.4-0.5,4.6l0,0l0,0c0,1.1,0.2,2.1,0.6,3l0,0l0,0
		C74.1,3,73.5,2.6,73.1,2l0,0l0,0c-0.4-0.6-0.6-1.4-0.6-2.6l0,0l0,0c0-0.2,0-0.6,0.1-1.1l0,0l0,0c-0.4,1.3-1,2.4-2,3.2l0,0l0,0
		c-1,0.8-1.9,1.2-2.8,1.2l0,0l0,0c-0.9,0-1.7-0.4-2.2-1.1l0,0l0,0C65,1,64.7,0.1,64.7-1.2l0,0l0,0c0-1.2,0.2-2.4,0.7-3.6l0,0l0,0
		c0.4-1.2,1.1-2.2,2.1-3l0,0l0,0c0.9-0.9,1.9-1.3,3.1-1.3l0,0l0,0c0.5,0,1,0.1,1.6,0.3l0,0l0,0c-0.8,0.2-1.6,0.6-2.3,1.2l0,0l0,0
		C69.2-7.1,68.6-6.4,68.2-5.7z M89.4-12.1L89.4-12.1l0,0.3l0,0c0,0.5-0.2,2.3-0.6,5.2l0,0l0,0c-0.4,2.9-0.6,5.4-0.6,7.4l0,0l0,0
		c0,0.9,0,1.6,0.1,2.1l0,0l0,0c-0.3,0-0.5,0-0.6,0l0,0l0,0c-0.6,0-1.1-0.1-1.4-0.4l0,0l0,0C86,2.1,85.9,1.7,85.9,1l0,0l0,0
		c0-0.6,0.2-2.6,0.7-6l0,0l0,0c0.5-3.3,0.7-5.7,0.7-7.1l0,0l0,0c0-1.4-0.1-2.3-0.3-2.8l0,0l0,0c0.4,0.1,0.9,0.2,1.2,0.5l0,0l0,0
		c0.4,0.3,0.7,0.7,0.9,1.1l0,0l0,0c1.1-0.6,2.3-0.9,3.6-0.9l0,0l0,0c1.3,0,2.3,0.4,3.1,1.2l0,0l0,0c0.8,0.8,1.1,1.8,1.1,3l0,0l0,0
		c0,1.5-0.5,2.9-1.6,4l0,0l0,0C94.2-4.6,92.7-4,90.8-4l0,0l0,0c-0.4,0-0.8,0-1.2-0.1l0,0l-0.1-0.7l0,0c0.9,0,1.8-0.1,2.5-0.4l0,0
		l0,0c0.7-0.3,1.2-0.6,1.6-1.1l0,0l0,0c0.7-0.9,1.1-1.9,1.1-3.1l0,0l0,0c0-0.9-0.3-1.6-0.8-2.2l0,0l0,0c-0.5-0.6-1.3-0.9-2.4-0.9
		l0,0l0,0C90.9-12.5,90.2-12.4,89.4-12.1z M101.5-5.7L101.5-5.7L101.5-5.7c-0.4,0.7-0.7,1.4-0.9,2.2l0,0l0,0
		c-0.2,0.7-0.3,1.4-0.3,2.1l0,0l0,0c0,0.7,0.1,1.2,0.4,1.7l0,0l0,0C101,0.7,101.5,1,102,1l0,0l0,0c0.8,0,1.5-0.4,2.2-1.3l0,0l0,0
		c0.7-0.9,1.2-1.9,1.6-3.1l0,0l0,0c0.4-1.2,0.6-2.4,0.6-3.4l0,0l0,0c0-1,0-1.9-0.1-2.6l0,0l0,0c0.3,0,0.5,0,0.6,0l0,0l0,0
		c1.2,0,1.8,0.6,1.8,1.8l0,0l0,0c0,0.3-0.2,1.3-0.5,3.2l0,0l0,0c-0.3,1.9-0.5,3.4-0.5,4.6l0,0l0,0c0,1.1,0.2,2.1,0.6,3l0,0l0,0
		c-0.9-0.2-1.5-0.6-1.9-1.2l0,0l0,0c-0.4-0.6-0.6-1.4-0.6-2.6l0,0l0,0c0-0.2,0-0.6,0.1-1.1l0,0l0,0c-0.4,1.3-1,2.4-2,3.2l0,0l0,0
		c-0.9,0.8-1.9,1.2-2.8,1.2l0,0l0,0c-0.9,0-1.7-0.4-2.2-1.1l0,0l0,0C98.3,1,98,0.1,98-1.2l0,0l0,0c0-1.2,0.2-2.4,0.7-3.6l0,0l0,0
		c0.5-1.2,1.1-2.2,2.1-3l0,0l0,0c0.9-0.9,1.9-1.3,3.1-1.3l0,0l0,0c0.5,0,1,0.1,1.6,0.3l0,0l0,0c-0.8,0.2-1.6,0.6-2.3,1.2l0,0l0,0
		C102.5-7.1,101.9-6.4,101.5-5.7z M121.6-6.6L121.6-6.6L121.6-6.6c0,0.6-0.1,1.8-0.4,3.4l0,0l0,0c-0.3,1.6-0.4,2.8-0.4,3.6l0,0l0,0
		c0,0.7,0.1,1.3,0.3,1.6l0,0l0,0c0.2,0.3,0.5,0.6,0.9,0.8l0,0l0,0c-0.2,0-0.5,0-0.8,0l0,0l0,0c-0.9,0-1.6-0.2-2-0.5l0,0l0,0
		c-0.4-0.4-0.6-1-0.6-1.9l0,0l0,0c0-0.5,0.1-1.6,0.4-3.1l0,0l0,0c0.3-1.6,0.4-2.7,0.4-3.5l0,0l0,0c0-0.9-0.3-1.4-0.8-1.4l0,0l0,0
		c-0.9,0-1.8,0.8-2.8,2.4l0,0l0,0c-1,1.6-1.4,3.5-1.4,5.7l0,0l0,0c0,0.9,0,1.6,0.1,2.1l0,0l0,0c-0.4,0-0.6,0-0.7,0l0,0l0,0
		c-1.2,0-1.8-0.6-1.8-1.8l0,0l0,0c0-0.3,0.2-1.4,0.5-3.2l0,0l0,0c0.3-1.9,0.4-3.4,0.4-4.5l0,0l0,0c0-1.1-0.1-2.1-0.4-3.1l0,0l0,0
		c0.8,0.3,1.4,0.8,1.7,1.4l0,0l0,0c0.3,0.6,0.5,1.3,0.5,2l0,0l0,0c0,0.8-0.1,1.6-0.3,2.7l0,0l0,0c0.5-1.6,1.2-2.9,2.2-4l0,0l0,0
		c1-1.1,1.9-1.6,2.8-1.6l0,0l0,0C120.9-9.6,121.6-8.6,121.6-6.6z M131.7-9L131.7-9L131.7-9c0,0.6-0.1,1-0.3,1.2l0,0l0,0
		c-0.2,0.2-0.6,0.3-1,0.3l0,0h-1.5l0,0c-0.1,0.4-0.2,1.2-0.4,2.6l0,0l0,0c-0.5,2.6-0.7,4.6-0.7,5.9l0,0l0,0c0,1.3,0.1,2.2,0.3,2.7
		l0,0l0,0c-0.8-0.3-1.4-0.7-1.7-1.3l0,0l0,0c-0.3-0.6-0.5-1.3-0.5-2.2l0,0l0,0c0-0.9,0-1.7,0.1-2.4l0,0l0,0c0.1-0.8,0.3-1.6,0.4-2.7
		l0,0l0,0c0.2-1,0.3-1.8,0.4-2.5l0,0l0,0c-0.8,0.1-1.6,0.3-2.4,0.7l0,0l0,0c0-0.2,0-0.4,0-0.6l0,0l0,0c0-0.7,0.2-1.1,0.7-1.3l0,0
		l0,0c0.5-0.2,1.1-0.3,1.9-0.3l0,0l0,0c0.1-1,0.2-1.8,0.2-2.3l0,0l0,0c0-0.5,0-0.9,0-1.2l0,0l0,0c0-0.3,0-0.5,0-0.7l0,0l0,0
		c0.6,0.1,1.1,0.4,1.5,0.9l0,0l0,0c0.4,0.5,0.5,1.1,0.5,1.9l0,0l0,0c0,0.4,0,0.9-0.1,1.5l0,0l0,0c1.2,0,2.1-0.2,2.6-0.6l0,0l0,0
		C131.7-9.4,131.7-9.2,131.7-9z M135.6-4L135.6-4c0.5-1.6,1.2-2.9,2.1-4l0,0l0,0c1-1.1,1.9-1.6,2.7-1.6l0,0l0,0
		c0.8,0,1.4,0.3,1.8,0.8l0,0l0,0c0.4,0.5,0.5,1.2,0.5,2.1l0,0l0,0c0,0.9-0.1,2.1-0.4,3.7l0,0l0,0c-0.3,1.6-0.4,2.7-0.4,3.5l0,0l0,0
		c0,0.7,0.1,1.2,0.3,1.6l0,0l0,0c0.2,0.3,0.5,0.6,0.9,0.8l0,0l0,0c-0.2,0-0.4,0-0.8,0l0,0l0,0c-0.9,0-1.6-0.2-2-0.6l0,0l0,0
		c-0.4-0.4-0.6-1-0.6-1.9l0,0l0,0c0-0.5,0.1-1.6,0.4-3.1l0,0l0,0c0.3-1.6,0.4-2.7,0.4-3.5l0,0l0,0c0-0.9-0.3-1.4-1-1.4l0,0l0,0
		c-0.4,0-0.8,0.2-1.3,0.6l0,0l0,0c-0.5,0.4-0.9,0.9-1.3,1.6l0,0l0,0c-0.4,0.7-0.8,1.5-1.1,2.6l0,0l0,0c-0.3,1-0.4,2.1-0.4,3.1l0,0
		l0,0c0,1,0,1.8,0.1,2.3l0,0l0,0c-0.3,0-0.5,0-0.6,0l0,0l0,0c-0.7,0-1.1-0.1-1.5-0.4l0,0l0,0c-0.3-0.3-0.5-0.7-0.5-1.3l0,0l0,0
		c0-0.6,0.1-1.7,0.4-3.4l0,0l0,0c0.7-5.2,1.1-9.2,1.1-11.9l0,0l0,0c0-1.2-0.1-2-0.2-2.5l0,0l0,0c0.8,0.3,1.4,0.7,1.7,1.3l0,0l0,0
		c0.3,0.6,0.5,1.4,0.5,2.4l0,0l0,0c0,0.7-0.1,2.2-0.4,4.4l0,0l0,0C135.9-6.6,135.7-5,135.6-4L135.6-4z M151.5-8.5L151.5-8.5
		L151.5-8.5c-0.8,0-1.5,0.5-2.1,1.4l0,0l0,0c-0.6,1-1,2.1-1.2,3.4l0,0h0.6l0,0c0.7,0,1.4-0.1,1.9-0.3l0,0l0,0c0.5-0.2,1-0.5,1.3-0.8
		l0,0l0,0c0.6-0.7,0.8-1.4,0.8-2.2l0,0l0,0c0-0.5-0.1-0.8-0.3-1.1l0,0l0,0C152.3-8.4,152-8.5,151.5-8.5z M154.5,0L154.5,0
		c-0.6,1-1.3,1.8-2.1,2.2l0,0l0,0c-0.8,0.4-1.7,0.6-2.7,0.6l0,0l0,0c-1,0-1.9-0.5-2.7-1.4l0,0l0,0c-0.8-0.9-1.1-2.1-1.1-3.8l0,0l0,0
		c0-1.8,0.5-3.5,1.5-4.9l0,0l0,0c0.5-0.7,1.1-1.3,1.9-1.7l0,0l0,0c0.8-0.4,1.7-0.6,2.6-0.6l0,0l0,0c2.1,0,3.1,1,3.1,3l0,0l0,0
		c0,1.2-0.5,2.2-1.4,2.9l0,0l0,0c-0.9,0.7-2,1-3.3,1l0,0l0,0c-0.8,0-1.6-0.1-2.2-0.2l0,0l0,0c0,0.1,0,0.4,0,0.6l0,0l0,0
		c0,2.5,0.7,3.7,2.2,3.7l0,0l0,0c1.4,0,2.5-0.7,3.4-2.1l0,0l0,0C154.2-0.5,154.5-0.3,154.5,0L154.5,0z M154-11.2L154-11.2L154-11.2
		c0,0.1-0.1,0.3-0.2,0.4l0,0l0,0c-0.1,0.1-0.3,0.2-0.5,0.3l0,0l0,0c-0.5-0.6-1.1-1.2-1.9-1.9l0,0l0,0c-0.8-0.6-1.6-1.1-2.4-1.3l0,0
		l0,0c0-0.7,0.4-1.3,1-1.7l0,0l0,0c0.7,0.3,1.5,0.9,2.3,1.7l0,0l0,0C153.1-12.8,153.7-12,154-11.2z M160.2-4.3L160.2-4.3
		c0.5-1.8,1.1-3.2,1.8-4l0,0l0,0c0.7-0.9,1.4-1.3,2-1.3l0,0l0,0c0.6,0,1.1,0.2,1.4,0.7l0,0l0,0c0.3,0.5,0.5,1,0.5,1.7l0,0l0,0
		c0,0.7-0.2,1.3-0.5,1.8l0,0l0,0c-0.4,0.5-0.9,0.8-1.6,0.8l0,0l0,0c-0.2,0-0.4,0-0.5,0l0,0l0,0c0.5-0.7,0.7-1.4,0.7-2.1l0,0l0,0
		c0-0.5-0.2-0.7-0.6-0.7l0,0l0,0c-0.3,0-0.7,0.2-1,0.6l0,0l0,0c-0.4,0.4-0.7,0.9-1.1,1.6l0,0l0,0c-0.3,0.7-0.6,1.6-0.8,2.6l0,0l0,0
		c-0.2,1.1-0.3,2.2-0.3,3.5l0,0l0,0c0,0.1,0,0.7,0.1,1.8l0,0l0,0c-0.4,0-0.6,0-0.6,0l0,0l0,0c-1.2,0-1.8-0.6-1.8-1.8l0,0l0,0
		c0-0.3,0.1-1.4,0.4-3.2l0,0l0,0c0.3-1.9,0.4-3.4,0.4-4.5l0,0l0,0c0-1.1-0.1-2.1-0.4-3.1l0,0l0,0c0.8,0.3,1.4,0.8,1.7,1.4l0,0l0,0
		c0.3,0.6,0.5,1.3,0.5,2.1l0,0l0,0C160.4-5.8,160.4-5.1,160.2-4.3L160.2-4.3z M172.6-8.5L172.6-8.5L172.6-8.5
		c-0.8,0-1.6,0.5-2.1,1.4l0,0l0,0c-0.6,1-1,2.1-1.2,3.4l0,0h0.6l0,0c0.7,0,1.4-0.1,1.9-0.3l0,0l0,0c0.5-0.2,1-0.5,1.3-0.8l0,0l0,0
		c0.6-0.7,0.8-1.4,0.8-2.2l0,0l0,0c0-0.5-0.1-0.8-0.3-1.1l0,0l0,0C173.4-8.4,173.1-8.5,172.6-8.5z M175.6,0L175.6,0
		c-0.6,1-1.3,1.8-2.1,2.2l0,0l0,0c-0.8,0.4-1.7,0.6-2.7,0.6l0,0l0,0c-1,0-1.9-0.5-2.7-1.4l0,0l0,0c-0.8-0.9-1.1-2.1-1.1-3.8l0,0l0,0
		c0-1.8,0.5-3.5,1.5-4.9l0,0l0,0c0.5-0.7,1.1-1.3,1.9-1.7l0,0l0,0c0.8-0.4,1.7-0.6,2.6-0.6l0,0l0,0c2.1,0,3.1,1,3.1,3l0,0l0,0
		c0,1.2-0.5,2.2-1.4,2.9l0,0l0,0c-0.9,0.7-2,1-3.3,1l0,0l0,0c-0.8,0-1.6-0.1-2.2-0.2l0,0l0,0c0,0.1,0,0.4,0,0.6l0,0l0,0
		c0,2.5,0.7,3.7,2.2,3.7l0,0l0,0c1.4,0,2.5-0.7,3.4-2.1l0,0l0,0C175.3-0.5,175.6-0.3,175.6,0L175.6,0z"/>
</g>
<g id="dfe8044c-91b6-4966-9038-a63642c35301" transform="matrix(0.6414999074478166,0,0,0.6414999074478166,37.325639709553826,117.89613952995941)">
	<path class="st0" d="M155.9,6.8V6.7c-1.1-2-3-3.5-5.3-4.1h-0.2c-1.2-0.4-2.5-0.6-3.8-0.7c-3.4-0.5-6.7-1.7-9.6-3.6
		c-0.5-0.3-1.2-0.1-1.5,0.4c-0.3,0.5-0.2,1.1,0.3,1.5c1,0.6,2,1.2,3,1.7c0,0.1-0.1,0.3-0.2,0.5c-1.4,4.8,1.4,9.9,6.2,11.3
		c0.9,0.2,1.8,0.4,2.7,0.4c2.7,0,5.3-1.2,7-3.4c0.1,1.5,0,3-0.3,4.5c-0.2,0.6,0,1.2,0.6,1.5c0,0,0.1,0,0.1,0c0.1,0,0.2,0,0.4,0
		c0.5,0,0.9-0.3,1.1-0.8c0.5-2,0.6-4.1,0.3-6.1C156.6,8.7,156.3,7.7,155.9,6.8z M149.2,4.6c0.1,0.3,0.1,0.5,0,0.8
		c-0.3,1-1.4,1.7-2.4,1.4c-1-0.3-1.7-1.4-1.4-2.4c0-0.1,0.1-0.2,0.1-0.3l0.9,0.1C147.4,4.2,148.3,4.4,149.2,4.6L149.2,4.6z
		 M150.6,11c-1.6,0.8-3.5,1-5.2,0.5c-3.6-1.1-5.8-4.9-4.7-8.5V2.8c0.8,0.3,1.7,0.6,2.6,0.8v0.1c-0.7,2.2,0.5,4.6,2.7,5.3
		c2.2,0.7,4.6-0.5,5.3-2.7c0.1-0.3,0.1-0.5,0.2-0.8c0.9,0.5,1.7,1.1,2.2,2C153.1,8.9,152,10.2,150.6,11L150.6,11z M191.2,2.3
		c0-0.2-0.1-0.3-0.2-0.5c1-0.5,2-1,3-1.7c0.5-0.4,0.6-1.1,0.2-1.6c-0.3-0.5-1-0.6-1.5-0.3c-2.9,1.9-6.2,3.1-9.6,3.6
		c-1.3,0.1-2.5,0.3-3.8,0.7h-0.2c-2.3,0.6-4.2,2.1-5.3,4.1v0.1c-0.5,0.9-0.7,1.9-0.8,2.9c-0.3,2.1-0.1,4.1,0.3,6.1
		c0.2,0.5,0.6,0.8,1.1,0.8c0.6,0,1.1-0.5,1.1-1.1c0-0.1,0-0.3-0.1-0.4c-0.3-1.5-0.4-3-0.3-4.5c1.7,2.2,4.3,3.4,7,3.4
		c0.9,0,1.8-0.1,2.7-0.4C189.8,12.3,192.6,7.3,191.2,2.3C191.3,2.4,191.2,2.4,191.2,2.3z M183.3,4.2l0.9-0.1
		c0.1,0.1,0.1,0.2,0.1,0.3c0.3,1-0.3,2.1-1.3,2.4c-1,0.3-2.1-0.3-2.4-1.3c-0.1-0.3-0.1-0.6-0.1-0.9C181.5,4.4,182.4,4.2,183.3,4.2
		L183.3,4.2z M184.4,11.5c-1.7,0.5-3.6,0.3-5.2-0.5c-1.4-0.8-2.5-2-3-3.6c0.6-0.8,1.3-1.5,2.2-2c0,0.2,0.1,0.4,0.1,0.6
		c0.5,1.8,2.2,3,4,3c2.3,0,4.2-2,4.1-4.3c0-0.3-0.1-0.7-0.1-1V3.6c0.9-0.2,1.7-0.5,2.5-0.8V3C190.1,6.6,188,10.4,184.4,11.5z"/>
	<path class="st0" d="M159.4,5.1c-0.2-3.4-3-5.5-7.7-5.9c-2.5-0.3-4.9-1.2-7-2.5c-0.5-0.3-1.2-0.2-1.6,0.3s-0.2,1.2,0.3,1.6
		c2.4,1.6,5.2,2.5,8.1,2.9c2,0.1,5.4,0.9,5.7,3.8c0,0.6,0.5,1.1,1.1,1.1h0.1C159,6.2,159.4,5.7,159.4,5.1z M178.9,1.4
		c2.9-0.3,5.7-1.3,8.1-2.9c0.5-0.3,0.7-1,0.3-1.6c-0.3-0.5-1-0.7-1.6-0.3c-2.1,1.4-4.5,2.2-7,2.6c-4.7,0.4-7.5,2.5-7.7,5.9
		c0,0.6,0.4,1.2,1,1.2c0,0,0,0,0,0h0.1c0.6,0,1.1-0.5,1.1-1.1C173.4,2.2,176.9,1.6,178.9,1.4z M141.8-6.4c0.4,0.5,1.1,0.6,1.6,0.2
		c0.5-0.4,0.6-1.1,0.2-1.6c0,0,0,0,0-0.1l-4.8-5.9c-0.4-0.5-1.1-0.6-1.6-0.2c-0.5,0.4-0.6,1.1-0.2,1.6c0,0,0,0,0,0.1L141.8-6.4z
		 M146.9-9.6c0.2,0.4,0.6,0.7,1.1,0.7c0.6,0,1.1-0.5,1.1-1.1c0-0.1,0-0.2-0.1-0.4l-2.1-5.5c-0.2-0.6-0.9-0.9-1.5-0.6
		s-0.9,0.9-0.6,1.5L146.9-9.6z M152.9-9.5c0.6,0,1.1-0.4,1.1-1l0.4-4.8c0.1-0.6-0.4-1.2-1-1.2c0,0,0,0,0,0c-0.6-0.1-1.2,0.4-1.2,1
		c0,0,0,0,0,0l-0.4,4.8C151.7-10.1,152.2-9.5,152.9-9.5C152.8-9.5,152.9-9.5,152.9-9.5z"/>
	<path class="st0" d="M232.9,29.2c-5.9-1.9-19.6-1.7-30.8-1.2c7.5-9.5,7.5-18.6,6.2-22.9c-1-3.2-2.6-11.4-0.6-14.5
		c0.4-0.6,1-1.1,1.8-1.2c2.6-0.3,3.1-3.1,3.5-5.3c0.1-0.8,0.3-1.6,0.5-2.3c0.5-0.8,1.1-1.5,1.8-2.1c2.1-1.7,3.7-3.9,4.8-6.3
		c2.4-5.9-0.8-8.8-0.9-8.9c-0.1-0.1-0.3-0.2-0.4-0.2h-0.2c-2.5-0.6-5.1-0.2-7.2,1.1c-1,0.5-2.3,1.1-4.1,1.9c-4,2-8.9,1.2-12-2
		c-6.8-6.5-11.5-8.4-30.1-8.4s-23.3,1.9-30,8.4c-3.1,3.2-8,4-12,2c-1.4-0.6-2.8-1.2-4.1-1.9c-2.2-1.3-4.8-1.7-7.2-1.1h-0.2
		c-0.2,0-0.3,0.1-0.4,0.2c-0.1,0.1-3.3,3-0.9,8.9c1,2.5,2.7,4.7,4.8,6.3c0.8,0.5,1.4,1.2,1.8,2.1c0.2,0.8,0.2,1.6,0.3,2.4
		c0.4,2.2,0.8,4.9,3.5,5.3c0.7,0.1,1.4,0.5,1.8,1.2c2,3.2,0.4,11.3-0.6,14.5c-1.4,4.3-1.3,13.5,6.2,22.9c-11.2-0.5-25-0.7-30.8,1.2
		c-0.6,0.2-0.9,0.8-0.7,1.4c0.2,0.6,0.8,0.9,1.4,0.7c6.1-1.9,22.5-1.5,31.8-1h0.4l1,1c-11.5,0.2-19.3,1-23.2,2.4
		c-0.6,0.2-0.9,0.8-0.7,1.4c0.2,0.6,0.8,0.9,1.4,0.7c0,0,0,0,0.1,0c3.9-1.4,12.4-2.2,24.8-2.3c0.5,0.5,1.1,0.9,1.6,1.3
		c-9.7,0.5-25.5,1.8-31.5,4.5c-0.5,0.3-0.8,1-0.5,1.5c0.3,0.5,0.8,0.7,1.4,0.5c6.3-2.7,24.3-4,33.3-4.4l1.5,1.1l0.1,0.1
		c-9.4,0.9-15.9,2.1-19.2,3.5c-0.5,0.3-0.8,1-0.5,1.5c0.3,0.5,0.8,0.7,1.4,0.5c3.1-1.4,9.7-2.5,19.1-3.4c0,2.8,0.3,5.5,1,8.2
		c2.4,6.5,5.8,8.1,9.7,8.4c0.6,1.1,1.3,2,2.3,2.7c-2.1,1.9-3.8,4.2-5.1,6.7c-0.2,0.6,0.1,1.2,0.6,1.5c0.6,0.2,1.2-0.1,1.5-0.6
		c0.4-1,1.6-3,4.9-6.3c1,0.5,2,0.9,3,1.2c-0.7,1.6-1.2,3.4-1.4,5.1c0,0.6,0.4,1.2,1.1,1.2c0,0,0,0,0,0c0.6,0,1.1-0.5,1.1-1.1
		c0.2-1.6,0.7-3.3,1.4-4.8c3.2,0.5,6.6,0.5,9.8,0c0.7,1.5,1.2,3.1,1.4,4.8c0,0.6,0.5,1.1,1.1,1.1c0.6,0,1.1-0.6,1.1-1.2c0,0,0,0,0,0
		c-0.2-1.8-0.6-3.5-1.3-5.2c1-0.3,2-0.7,3-1.2c3.3,3.3,4.5,5.2,4.9,6.3c0.2,0.6,0.9,0.9,1.5,0.6c0.6-0.2,0.9-0.9,0.6-1.5
		c-1.3-2.5-3-4.8-5.1-6.7c0.9-0.7,1.7-1.7,2.3-2.7c3.9-0.3,7.2-1.9,9.7-8.4c0.7-2.7,1-5.4,1-8.2c9.4,0.9,16,2.1,19.1,3.4
		c0.5,0.3,1.2,0.1,1.5-0.5s0.1-1.2-0.5-1.5c-0.1,0-0.1,0-0.2-0.1c-3.3-1.5-9.9-2.7-19.5-3.6l1.2-0.8l0.5-0.3
		c9,0.5,27.3,1.7,33.6,4.5c0.6,0.2,1.2-0.1,1.4-0.7c0.2-0.5,0-1.1-0.5-1.4c-6.1-2.7-21.9-3.9-31.6-4.5c0.6-0.4,1.1-0.9,1.7-1.3
		c12.4,0.1,21,0.9,24.9,2.3c0.6,0.2,1.2-0.1,1.4-0.7c0.2-0.6-0.1-1.2-0.7-1.4c-3.9-1.4-11.7-2.2-23.2-2.4l1-1h0.4
		c9.2-0.5,25.6-1,31.8,1c0.6,0.2,1.3-0.2,1.5-0.8C233.8,30.1,233.5,29.4,232.9,29.2z M169.9,57.6c-0.3-0.5-1-0.7-1.5-0.4
		c-0.5,0.3-0.7,1-0.4,1.5c0.2,0.4,0.6,1,1,1.8c-2.6,0.4-5.2,0.4-7.8,0c0.5-1.1,0.9-1.8,1-1.8c0.3-0.5,0.1-1.2-0.4-1.5
		c-0.5-0.3-1.2-0.1-1.5,0.4c0,0.1-0.6,1.1-1.3,2.5c-2-0.4-3.9-1.5-5.4-3h3.6c3.3,0,6.3-1.8,7.9-4.7c1.6,2.9,4.6,4.7,7.9,4.7h3.6
		c-1.5,1.5-3.3,2.6-5.4,3C170.4,58.7,169.9,57.7,169.9,57.6L169.9,57.6z M195.5,31.7l-0.1,0.1c-1.3,1.1-2.7,2.1-4,3h-1.2
		c0.2-2.6,0.7-4.9,1.6-5.6c0.5-0.4,0.6-1.1,0.2-1.6c-0.4-0.5-1.1-0.6-1.6-0.2c-1.5,1.2-2.2,4-2.4,7.2H187c-0.6,0-1.1,0.4-1.2,1
		c0,0,0,0,0,0.1c0,0.6,0.5,1.1,1.1,1.2c0,0,0,0,0,0h0.8V38h-0.3c-0.6,0-1.2,0.4-1.2,1c-0.1,0.6,0.4,1.2,1,1.2h0.3
		c0,2.6-0.2,5.1-0.8,7.6c-2.1,5.6-4.6,6.8-8.3,7h-5.7c-3.7,0-6.7-3-6.8-6.7c0.5-0.5,1.1-0.9,1.7-1.3c1.5-1,3.7-2.3,2.9-4.2
		c-0.3-0.7-0.1-1,2.5-2.7l0.9-0.6c1.1-0.6,1.9-1.7,1.9-3c-0.1-1-0.6-1.9-1.4-2.4c-0.5-0.3-1.2-0.2-1.5,0.3c-0.3,0.5-0.2,1.2,0.3,1.5
		c0.1,0.1,0.4,0.3,0.4,0.6c0,0.2-0.3,0.6-1,1.1l-0.9,0.6c-2.4,1.6-4.4,3-3.3,5.4c-0.1,0.4-1.3,1.1-2,1.5c-0.6,0.3-1.2,0.7-1.7,1.2
		c-0.5-0.4-1.1-0.8-1.7-1.2c-0.7-0.4-1.4-0.9-2-1.4c1.1-2.5-0.9-3.8-3.3-5.5l-0.9-0.6c-0.7-0.5-1-0.9-1-1.1s0.3-0.5,0.4-0.6
		c0.5-0.4,0.6-1.1,0.3-1.6c-0.3-0.5-1-0.6-1.5-0.3c-0.8,0.5-1.4,1.4-1.4,2.4c0.1,1.3,0.8,2.4,1.9,3l0.9,0.6c2.6,1.8,2.8,2.1,2.5,2.7
		c-0.8,1.9,1.3,3.2,2.9,4.2c0.6,0.3,1.2,0.7,1.7,1.2c0,3.7-3.1,6.8-6.8,6.8h-2.3c-5.6,0.1-9,0.2-11.7-7c-0.6-2.5-0.9-5-0.8-7.6h0.3
		c0.6-0.1,1.1-0.6,1-1.2s-0.6-1.1-1.2-1H142v-1.1h0.8c0.6,0,1.1-0.5,1.1-1.1s-0.5-1.1-1.1-1.1H142c-0.3-3.3-0.9-6-2.4-7.2
		c-0.5-0.4-1.3-0.3-1.7,0.2c-0.4,0.5-0.3,1.3,0.2,1.7c0.9,0.7,1.4,3,1.6,5.6h-1.4c-1.3-1-2.6-2-3.7-3c-0.1-0.1-0.1-0.2-0.2-0.2
		c-0.4-0.3-0.8-0.7-1.1-1l3.5,0.2h0.1c0.6,0,1.1-0.5,1.2-1.1c0-0.6-0.5-1.1-1.1-1.2c0,0-2.4-0.2-6-0.4c-8.2-9.3-8.4-18.3-7.1-22.4
		c0-0.1,3.5-11.4,0.3-16.4c-0.7-1.2-1.9-2-3.3-2.1c-0.9-0.1-1.2-1.5-1.5-3.4c-0.1-0.9-0.3-1.9-0.7-2.8c-0.6-1.2-1.4-2.2-2.4-2.9
		c-1.8-1.4-3.3-3.3-4.2-5.5c-1.5-3.5-0.3-5.5,0.2-6.1c1.1-0.1,2.2,0.2,3.1,0.8c0.1,0.1,11.3,8.3,16.2,8.3h0.5
		c-4.5,3.2-7.1,7.3-7.1,11.4c0,0.6,0.5,1.1,1.1,1.1c0.6,0,1.1-0.5,1.1-1.1c0-4.2,3.9-8.8,9.9-11.8c2.4-0.4,4.6-1.1,6.7-2.2
		c0.5-0.3,0.8-1,0.5-1.5c-0.3-0.5-1-0.8-1.5-0.5c0,0,0,0,0,0c-3.5,1.7-7.4,2.6-11.3,2.4c-1.9,0-5.5-1.8-8.8-3.8
		c4.7,2.1,10.3,1.1,13.9-2.6c6-5.7,9.7-7.7,28.5-7.7s22.5,2,28.5,7.7c2.3,2.3,5.4,3.6,8.7,3.7c1.8,0,3.5-0.4,5.2-1
		c-3.3,2-6.9,3.8-8.8,3.8c-3.9,0.2-7.8-0.6-11.3-2.4c-0.5-0.3-1.2-0.1-1.5,0.5c-0.3,0.5-0.1,1.2,0.4,1.5c2.1,1.1,4.4,1.9,6.8,2.3
		c6,3,9.9,7.5,9.9,11.8c0,0.6,0.5,1.1,1.1,1.1s1.1-0.5,1.1-1.1c0-4-2.7-8.2-7.1-11.4h0.7c4.9,0,16.1-8.2,16.2-8.3
		c0.9-0.6,2-0.9,3.1-0.8c0.5,0.6,1.6,2.6,0.1,6.1c-0.9,2.2-2.3,4.1-4.2,5.5c-1,0.8-1.9,1.8-2.4,2.9c-0.3,0.9-0.5,1.8-0.7,2.8
		c-0.3,2-0.6,3.3-1.5,3.4c-1.4,0.2-2.6,1-3.4,2.2c-3.2,5,0.3,16.3,0.3,16.4c1.3,4.1,1.1,13.1-7.1,22.4c-3.6,0.2-6,0.4-6,0.4
		c-0.6,0-1.1,0.5-1.1,1.2s0.5,1.1,1.2,1.1h0.1l3.5-0.2C196.4,31,195.9,31.3,195.5,31.7z"/>
	<path class="st0" d="M187-6c0.3,0,0.7-0.2,0.9-0.4l4.8-5.9c0.4-0.5,0.4-1.2-0.1-1.6c-0.5-0.4-1.2-0.4-1.6,0.1c0,0,0,0,0,0.1
		l-4.8,5.9c-0.4,0.5-0.3,1.2,0.2,1.6C186.5-6.1,186.8-6,187-6L187-6z M181.5-9c0.1,0,0.3,0,0.4,0c0.5,0,0.9-0.3,1.1-0.7l2.1-5.5
		c0.2-0.6-0.1-1.2-0.6-1.5s-1.2,0.1-1.5,0.6l-2.1,5.5C180.6-10,180.8-9.3,181.5-9C181.4-9,181.5-9,181.5-9z M176.9-9.5
		c0.6,0,1.1-0.6,1-1.2c0,0,0,0,0,0l-0.4-4.8c0-0.6-0.6-1.1-1.2-1c-0.6,0-1.1,0.6-1,1.2l0.4,4.8C175.7-9.9,176.3-9.4,176.9-9.5
		C176.9-9.5,176.9-9.5,176.9-9.5z"/>
	<circle class="st0" cx="147.1" cy="42.5" r="1.6"/>
	<circle class="st0" cx="147.6" cy="47.8" r="1.6"/>
	<circle class="st0" cx="151.7" cy="51.4" r="1.6"/>
	<circle class="st0" cx="153.1" cy="45.9" r="1.6"/>
	<circle class="st0" cx="157.5" cy="48.7" r="1.6"/>
	<circle class="st0" cx="182.7" cy="42.5" r="1.6"/>
	<circle class="st0" cx="182.2" cy="47.8" r="1.6"/>
	<circle class="st0" cx="178.1" cy="51.4" r="1.6"/>
	<circle class="st0" cx="176.7" cy="45.9" r="1.6"/>
	<circle class="st0" cx="172.3" cy="48.7" r="1.6"/>
	<path class="st0" d="M170.2,16.5c-0.6-0.1-1.2,0.4-1.2,1c0,0,0,0,0,0c-0.4,3.1-1.9,5.9-4.1,8.1c-2.2-2.2-3.7-5-4.1-8.1
		c0-0.6-0.6-1.1-1.2-1c-0.6,0-1.1,0.6-1,1.2c0.5,4,2.5,7.7,5.6,10.3c0.2,0.2,0.4,0.3,0.7,0.3c0.3,0,0.5-0.1,0.7-0.3
		c3.1-2.6,5.1-6.3,5.6-10.3C171.2,17.1,170.8,16.6,170.2,16.5z M150.4,20.5c-0.5-0.3-1.2-0.1-1.5,0.4c-0.3,0.5-0.7,1.1-1.1,1.7
		c-2,2.9-5,7.3-0.8,12c0.5,0.4,1.2,0.3,1.6-0.1c0.3-0.4,0.4-0.9,0.1-1.4c-2.8-3.1-1.4-5.7,1-9.1c0.4-0.6,0.9-1.2,1.2-1.8
		C151.2,21.6,151.1,20.9,150.4,20.5C150.5,20.6,150.5,20.6,150.4,20.5z M180.9,20.9c-0.3-0.5-1-0.7-1.5-0.4c-0.5,0.3-0.7,1-0.4,1.5
		c0.3,0.6,0.8,1.2,1.2,1.8c2.4,3.4,3.8,6.1,1,9.1c-0.5,0.4-0.5,1.1-0.1,1.6c0.4,0.5,1.1,0.5,1.6,0.1c0.1-0.1,0.1-0.1,0.2-0.2
		c4.3-4.6,1.2-9-0.8-12C181.6,22,181.2,21.5,180.9,20.9z M152.7,35.2c0.2-0.6-0.1-1.2-0.7-1.4c-0.6-0.2-1.2,0.1-1.4,0.7
		c-0.9,2.8,0.3,5.8,2.9,7.2c0.5,0.3,1.2,0.1,1.5-0.4c0.3-0.5,0.1-1.2-0.4-1.5C152.9,38.9,152.2,37,152.7,35.2z M176.3,41.7
		c2.5-1.4,3.7-4.4,2.9-7.2c-0.2-0.6-0.8-0.9-1.4-0.7c-0.6,0.2-0.9,0.8-0.7,1.4l0,0c0.5,1.8-0.2,3.6-1.8,4.5c-0.5,0.3-0.7,1-0.4,1.5
		C175.1,41.8,175.8,42,176.3,41.7L176.3,41.7z M169.2,35.5c-2.1,2.4-5.7,2.6-8.1,0.5c-0.2-0.2-0.4-0.4-0.5-0.5
		c-0.4-0.5-1.1-0.5-1.6-0.1c-0.5,0.4-0.5,1.1-0.1,1.6c2.9,3.3,7.9,3.7,11.3,0.9c0.3-0.3,0.6-0.6,0.9-0.9c0.4-0.5,0.4-1.2-0.1-1.6
		C170.3,34.9,169.6,35,169.2,35.5L169.2,35.5L169.2,35.5z M135.7,13.5c-0.5-0.3-1.2-0.2-1.6,0.3c-0.3,0.5-0.2,1.2,0.3,1.6
		c0.1,0,0.1,0.1,0.2,0.1c3.9,2.2,5.7,5.4,5.7,6.5c0,0.6,0.5,1.1,1.1,1.1s1.1-0.5,1.1-1.1C142.5,19.7,139.9,15.9,135.7,13.5z
		 M195.8,14c-0.3-0.5-1-0.7-1.5-0.4c-4.3,2.4-6.9,6.2-6.9,8.5c0,0.6,0.5,1.1,1.1,1.1s1.1-0.5,1.1-1.1c0-1.2,1.7-4.4,5.7-6.5
		C195.8,15.2,196.1,14.5,195.8,14C195.8,14,195.8,14,195.8,14z"/>
</g>
<g id="_x35_afeb38c-54b7-45cf-8e8f-6e00f7dcb161" transform="matrix(0.4959242904269749,0,0,0.4959242904269749,111.69879049937542,160.64609744192566)">
	<path d="M202.9-17.9l-1.7-4.4h-6.6l-1.7,4.4h-1.1l5.5-13.9h1.2l5.5,13.9H202.9z M194.9-23.2h5.9l-2.4-6l-0.5-1.5h0l-0.5,1.4
		L194.9-23.2z M222-24.7h5.7v6.8h-0.8l0-2.4l0,0c-0.4,0.8-1,1.5-1.8,2l0,0l0,0c-0.8,0.4-1.8,0.7-3,0.7l0,0l0,0
		c-1.3,0-2.4-0.3-3.3-0.9l0,0l0,0c-0.9-0.6-1.7-1.4-2.2-2.5l0,0l0,0c-0.5-1.1-0.8-2.3-0.8-3.8l0,0l0,0c0-1.4,0.3-2.7,0.8-3.8l0,0
		l0,0c0.5-1.1,1.3-1.9,2.2-2.5l0,0l0,0c1-0.6,2.1-0.9,3.3-0.9l0,0l0,0c1.4,0,2.6,0.3,3.5,0.8l0,0l0,0c0.9,0.6,1.6,1.4,2,2.6l0,0
		l-1,0.5l0,0c-0.3-1-0.9-1.7-1.6-2.2l0,0l0,0c-0.8-0.5-1.7-0.8-2.9-0.8l0,0l0,0c-1,0-1.9,0.3-2.7,0.8l0,0l0,0
		c-0.8,0.5-1.4,1.2-1.8,2.1l0,0l0,0c-0.4,0.9-0.7,2-0.7,3.3l0,0l0,0c0,1.9,0.5,3.4,1.4,4.5l0,0l0,0c0.9,1.1,2.2,1.7,3.8,1.7l0,0l0,0
		c1,0,1.9-0.2,2.6-0.6l0,0l0,0c0.7-0.4,1.2-0.9,1.5-1.6l0,0l0,0c0.3-0.6,0.5-1.4,0.5-2.1l0,0v-0.8H222V-24.7z M243-18.9h8.7v1H242
		v-13.9h9.5v1H243v5.4h6.6v1H243V-18.9z M275.9-31.8v13.9h-1.3l-7.4-10.9l-1-1.8h0l0.1,1.7v11h-1v-13.9h1.3l7.3,10.9l1.1,1.9l0-1.7
		v-11H275.9z M301.8-21.4L301.8-21.4c-0.4,1.2-1.1,2.1-2,2.7l0,0l0,0c-1,0.7-2.1,1-3.5,1l0,0l0,0c-1.3,0-2.4-0.3-3.3-0.9l0,0l0,0
		c-0.9-0.6-1.7-1.4-2.2-2.5l0,0l0,0c-0.5-1.1-0.8-2.3-0.8-3.8l0,0l0,0c0-1.4,0.3-2.7,0.8-3.8l0,0l0,0c0.5-1.1,1.3-1.9,2.2-2.5l0,0
		l0,0c1-0.6,2.1-0.9,3.3-0.9l0,0l0,0c2.8,0,4.6,1.1,5.4,3.4l0,0l-1,0.5l0,0c-0.3-1-0.8-1.7-1.5-2.2l0,0l0,0
		c-0.7-0.5-1.6-0.7-2.7-0.7l0,0l0,0c-1,0-1.9,0.3-2.7,0.8l0,0l0,0c-0.8,0.5-1.4,1.2-1.8,2.1l0,0l0,0c-0.4,0.9-0.6,2-0.6,3.3l0,0l0,0
		c0,1.3,0.2,2.4,0.6,3.3l0,0l0,0c0.4,0.9,1,1.6,1.8,2.1l0,0l0,0c0.8,0.5,1.7,0.8,2.7,0.8l0,0l0,0c1.1,0,2.1-0.3,2.9-0.8l0,0l0,0
		c0.8-0.5,1.3-1.3,1.6-2.3l0,0L301.8-21.4z M316.4-18.9h8.8v1h-9.8v-13.9h9.5v1h-8.4v5.4h6.7v1h-6.7V-18.9z M360.2-31.8L360.2-31.8
		c2.2,0,3.9,0.6,5.1,1.8l0,0l0,0c1.2,1.2,1.8,2.9,1.8,5.1l0,0l0,0c0,2.3-0.6,4-1.8,5.2l0,0l0,0c-1.2,1.2-2.9,1.8-5.1,1.8l0,0h-4.4
		v-13.9H360.2z M360.2-18.9L360.2-18.9c1.9,0,3.3-0.5,4.2-1.6l0,0l0,0c1-1,1.5-2.5,1.5-4.5l0,0l0,0c0-1.9-0.5-3.3-1.5-4.3l0,0l0,0
		c-1-1-2.4-1.5-4.2-1.5l0,0h-3.4v11.9H360.2z M382.1-18.9h8.7v1h-9.8v-13.9h9.5v1h-8.4v5.4h6.6v1h-6.6V-18.9z M428.4-27.6l-2.8,9.7
		h-1.3l-4.3-13.9h1.1l3.8,13l3.6-13h1.2l3.6,13l3.9-13h1.1L434-17.9h-1.3l-2.8-9.7l-0.8-3h0L428.4-27.6z M452.7-18.9h8.8v1h-9.8
		v-13.9h9.5v1h-8.4v5.4h6.7v1h-6.7V-18.9z M475-17.9v-13.9h4.9l0,0c1.5,0,2.7,0.3,3.4,0.9l0,0l0,0c0.7,0.6,1.1,1.5,1.1,2.7l0,0l0,0
		c0,0.8-0.2,1.5-0.7,2.1l0,0l0,0c-0.4,0.6-1.1,0.9-1.9,1.1l0,0v0l0,0c0.9,0.1,1.6,0.5,2.1,1.1l0,0l0,0c0.5,0.6,0.8,1.3,0.8,2.2l0,0
		l0,0c0,1.2-0.4,2.1-1.3,2.8l0,0l0,0c-0.9,0.6-2.1,1-3.6,1l0,0H475z M476.1-25.4h3.9l0,0c2.3,0,3.4-0.9,3.4-2.7l0,0l0,0
		c0-1.8-1.1-2.7-3.4-2.7l0,0h-3.9V-25.4z M476.1-18.9h4.1l0,0c1.2,0,2.1-0.2,2.7-0.7l0,0l0,0c0.6-0.5,0.9-1.2,0.9-2.1l0,0l0,0
		c0-0.9-0.3-1.6-0.9-2.1l0,0l0,0c-0.6-0.5-1.5-0.7-2.7-0.7l0,0h-4.1V-18.9z M520.2-31.8L520.2-31.8c2.2,0,3.9,0.6,5.1,1.8l0,0l0,0
		c1.2,1.2,1.8,2.9,1.8,5.1l0,0l0,0c0,2.3-0.6,4-1.8,5.2l0,0l0,0c-1.2,1.2-2.9,1.8-5.1,1.8l0,0h-4.4v-13.9H520.2z M520.3-18.9
		L520.3-18.9c1.8,0,3.3-0.5,4.3-1.6l0,0l0,0c1-1,1.5-2.5,1.5-4.5l0,0l0,0c0-1.9-0.5-3.3-1.5-4.3l0,0l0,0c-1-1-2.4-1.5-4.3-1.5l0,0
		h-3.4v11.9H520.3z M542.2-18.9h8.8v1h-9.8v-13.9h9.5v1h-8.4v5.4h6.7v1h-6.7V-18.9z M568.8-32L568.8-32c2.6,0,4.4,1,5.2,3.1l0,0
		l-0.9,0.7l0,0c-0.3-1-0.9-1.7-1.6-2.2l0,0l0,0c-0.7-0.4-1.6-0.7-2.7-0.7l0,0l0,0c-0.8,0-1.5,0.1-2.1,0.4l0,0l0,0
		c-0.6,0.3-1.1,0.6-1.4,1l0,0l0,0c-0.3,0.4-0.5,0.9-0.5,1.5l0,0l0,0c0,0.5,0.1,1,0.4,1.3l0,0l0,0c0.3,0.4,0.7,0.6,1.4,0.9l0,0l0,0
		c0.6,0.2,1.5,0.5,2.6,0.7l0,0l0,0c1.8,0.3,3.1,0.8,3.8,1.4l0,0l0,0c0.8,0.6,1.1,1.4,1.1,2.4l0,0l0,0c0,0.7-0.2,1.4-0.6,2l0,0l0,0
		c-0.4,0.6-1,1-1.8,1.3l0,0l0,0c-0.8,0.3-1.7,0.5-2.7,0.5l0,0l0,0c-1.4,0-2.7-0.3-3.7-0.9l0,0l0,0c-1-0.6-1.7-1.4-2.1-2.4l0,0
		l0.9-0.7l0,0c0.3,1,0.8,1.8,1.7,2.3l0,0l0,0c0.9,0.5,1.9,0.8,3.2,0.8l0,0l0,0c1.2,0,2.2-0.2,2.9-0.7l0,0l0,0c0.8-0.5,1.2-1.2,1.2-2
		l0,0l0,0c0-0.7-0.3-1.3-0.9-1.8l0,0l0,0c-0.6-0.4-1.7-0.8-3.2-1l0,0l0,0c-1.3-0.2-2.3-0.5-3.1-0.8l0,0l0,0
		c-0.8-0.3-1.3-0.7-1.6-1.2l0,0l0,0c-0.3-0.5-0.5-1.1-0.5-1.8l0,0l0,0c0-0.7,0.2-1.4,0.6-2l0,0l0,0c0.4-0.6,1-1.1,1.8-1.4l0,0l0,0
		C566.9-31.8,567.8-32,568.8-32L568.8-32z M589.1-31.8v13.9H588v-13.9H589.1z M609.3-24.7h5.7v6.8h-0.8l0-2.4l0,0
		c-0.4,0.8-1,1.5-1.8,2l0,0l0,0c-0.8,0.4-1.8,0.7-3,0.7l0,0l0,0c-1.3,0-2.4-0.3-3.3-0.9l0,0l0,0c-0.9-0.6-1.7-1.4-2.2-2.5l0,0l0,0
		c-0.5-1.1-0.8-2.3-0.8-3.8l0,0l0,0c0-1.4,0.3-2.7,0.8-3.8l0,0l0,0c0.5-1.1,1.3-1.9,2.2-2.5l0,0l0,0c1-0.6,2.1-0.9,3.3-0.9l0,0l0,0
		c1.4,0,2.6,0.3,3.5,0.8l0,0l0,0c0.9,0.6,1.6,1.4,2,2.6l0,0l-1,0.5l0,0c-0.3-1-0.9-1.7-1.6-2.2l0,0l0,0c-0.8-0.5-1.7-0.8-2.9-0.8
		l0,0l0,0c-1,0-1.9,0.3-2.7,0.8l0,0l0,0c-0.8,0.5-1.4,1.2-1.8,2.1l0,0l0,0c-0.4,0.9-0.6,2-0.6,3.3l0,0l0,0c0,1.9,0.5,3.4,1.4,4.5
		l0,0l0,0c0.9,1.1,2.2,1.7,3.8,1.7l0,0l0,0c1,0,1.8-0.2,2.5-0.6l0,0l0,0c0.7-0.4,1.2-0.9,1.6-1.6l0,0l0,0c0.3-0.6,0.5-1.4,0.5-2.1
		l0,0v-0.8h-4.7V-24.7z M639.8-31.8v13.9h-1.3l-7.4-10.9l-1-1.8h0l0.1,1.7v11h-1v-13.9h1.3l7.3,10.9l1,1.9l0-1.7v-11H639.8z"/>
</g>
</svg>
